<?xml version="1.0" encoding="UTF-8" standalone="no"?>
<!DOCTYPE svg PUBLIC "-//W3C//DTD SVG 1.1//EN" "http://www.w3.org/Graphics/SVG/1.1/DTD/svg11.dtd">
<svg width="100%" height="100%" viewBox="0 0 640 640" version="1.1" xmlns="http://www.w3.org/2000/svg" xmlns:xlink="http://www.w3.org/1999/xlink" xml:space="preserve" xmlns:serif="http://www.serif.com/" style="fill-rule:evenodd;clip-rule:evenodd;stroke-linecap:round;stroke-linejoin:round;stroke-miterlimit:1.5;">
    <rect x="0" y="0" width="640" height="640" style="fill:rgb(205,205,205);"/>
    <text x="42px" y="139.766px" style="font-family:'ArialMT', 'Arial', sans-serif;font-size:96px;">/layouts</text>
    <g transform="matrix(1,0,0,1,-60,-113)">
        <path d="M374.542,374.511C367.53,373.83 360.47,373.83 353.458,374.511L349.986,391.416C343.265,392.444 336.679,394.209 330.345,396.679L318.885,383.775C312.472,386.69 306.357,390.221 300.626,394.317L306.071,410.693C300.766,414.944 295.944,419.766 291.693,425.071L275.317,419.626C271.221,425.357 267.69,431.472 264.775,437.885L277.679,449.345C275.209,455.679 273.444,462.265 272.416,468.986L255.511,472.458C254.83,479.47 254.83,486.53 255.511,493.542L272.416,497.014C273.444,503.735 275.209,510.321 277.679,516.655L264.775,528.115C267.69,534.528 271.221,540.643 275.317,546.374L291.693,540.929C295.944,546.234 300.766,551.056 306.071,555.307L300.626,571.683C306.357,575.779 312.472,579.31 318.885,582.225L330.345,569.321C336.679,571.791 343.265,573.556 349.986,574.584L353.458,591.489C360.47,592.17 367.53,592.17 374.542,591.489L378.014,574.584C384.735,573.556 391.321,571.791 397.655,569.321L409.115,582.225C415.528,579.31 421.643,575.779 427.374,571.683L421.929,555.307C427.234,551.056 432.056,546.234 436.307,540.929L452.683,546.374C456.779,540.643 460.31,534.528 463.225,528.115L450.321,516.655C452.791,510.321 454.556,503.735 455.584,497.014L472.489,493.542C473.17,486.53 473.17,479.47 472.489,472.458L455.584,468.986C454.556,462.265 452.791,455.679 450.321,449.345L463.225,437.885C460.31,431.472 456.779,425.357 452.683,419.626L436.307,425.071C432.056,419.766 427.234,414.944 421.929,410.693L427.374,394.317C421.643,390.221 415.528,386.69 409.115,383.775L397.655,396.679C391.321,394.209 384.735,392.444 378.014,391.416L374.542,374.511ZM364,461.2C376.032,461.2 385.8,470.968 385.8,483C385.8,495.032 376.032,504.8 364,504.8C351.968,504.8 342.2,495.032 342.2,483C342.2,470.968 351.968,461.2 364,461.2Z" style="fill:rgb(0,98,148);stroke:black;stroke-width:1px;"/>
    </g>
</svg>
